<?xml version="1.0" standalone="no"?>
<!DOCTYPE svg PUBLIC "-//W3C//DTD SVG 20010904//EN"
 "http://www.w3.org/TR/2001/REC-SVG-20010904/DTD/svg10.dtd">
<svg version="1.0" xmlns="http://www.w3.org/2000/svg"
 width="630.000000pt" height="630.000000pt" viewBox="0 0 630.000000 630.000000"
 preserveAspectRatio="xMidYMid meet">
<metadata>
Created by potrace 1.14, written by Peter Selinger 2001-2017
</metadata>
<g transform="translate(0.000000,630.000000) scale(0.100000,-0.100000)"
fill="#000000" stroke="none">
<path d="M2985 6150 c-22 -4 -67 -14 -100 -23 -33 -8 -83 -18 -111 -20 -28 -3
-65 -12 -82 -21 -17 -9 -52 -16 -77 -16 -47 0 -78 -11 -104 -38 -40 -40 -218
-142 -247 -142 -9 0 -30 -6 -47 -14 -18 -7 -63 -26 -102 -41 -67 -27 -91 -47
-176 -141 -15 -17 -44 -34 -73 -42 -47 -12 -108 -65 -177 -152 -26 -33 -27
-33 -102 -31 -102 3 -109 -9 -62 -108 19 -40 35 -77 35 -82 0 -21 -38 -47 -99
-68 -35 -12 -98 -41 -140 -65 -42 -24 -88 -46 -102 -50 -14 -3 -30 -16 -36
-28 -6 -13 -38 -37 -74 -56 -76 -38 -144 -98 -190 -167 -18 -27 -63 -79 -99
-115 -68 -66 -171 -215 -211 -304 -26 -60 -33 -165 -18 -286 6 -47 12 -119 15
-160 2 -41 6 -102 9 -135 3 -33 8 -98 11 -145 3 -47 9 -102 14 -124 12 -54 7
-67 -42 -122 -87 -96 -115 -118 -208 -164 -158 -77 -207 -118 -214 -182 -4
-37 8 -58 34 -58 10 0 22 -6 28 -13 6 -7 23 -13 39 -15 15 -1 37 -7 48 -12 25
-13 70 -78 61 -87 -4 -4 -11 -1 -16 6 -10 17 -76 9 -121 -14 -47 -25 -68 -91
-55 -175 2 -14 -2 -34 -9 -45 -8 -14 -10 -53 -8 -125 2 -58 6 -148 7 -201 3
-83 7 -101 30 -135 28 -43 68 -145 92 -237 23 -88 66 -175 120 -242 56 -70
135 -149 182 -185 72 -54 142 -113 142 -119 0 -14 86 -94 142 -131 32 -21 77
-45 100 -54 115 -41 249 -76 291 -76 29 0 79 -12 125 -29 42 -17 91 -33 107
-37 53 -12 159 -56 180 -75 11 -10 32 -22 46 -28 15 -5 29 -20 32 -33 4 -13
24 -62 46 -110 30 -64 48 -91 73 -106 33 -21 128 -115 182 -182 72 -89 161
-180 177 -180 9 0 36 7 60 16 90 31 210 13 323 -50 25 -14 57 -27 70 -29 49
-6 80 -41 115 -128 19 -46 39 -89 45 -96 19 -21 78 -17 156 10 41 14 110 27
153 31 42 3 104 12 137 21 33 8 87 22 121 31 33 8 70 17 82 20 38 7 131 35
165 50 18 8 37 14 42 14 6 0 39 14 75 31 85 40 119 49 152 40 47 -12 166 64
184 118 4 12 100 18 118 7 6 -4 30 -8 52 -8 34 0 47 -6 70 -33 31 -35 81 -53
163 -58 55 -4 56 -3 191 124 61 57 90 73 220 124 104 41 221 104 268 145 41
35 64 48 157 89 48 22 72 35 166 96 34 22 76 48 93 57 40 22 40 41 -5 144 -25
59 -33 90 -28 106 7 24 9 34 19 133 3 33 8 67 10 75 2 8 6 51 10 95 7 85 28
142 70 187 14 15 25 32 25 38 0 5 4 10 8 10 9 0 31 56 38 98 22 121 49 216 80
276 47 92 152 248 210 311 24 28 66 93 92 145 46 93 47 97 47 190 0 52 -4 116
-8 141 -5 28 -4 63 2 85 5 22 13 64 16 94 8 73 13 91 37 117 17 19 19 29 13
70 -4 26 -9 73 -10 103 -2 47 -11 70 -58 153 -70 120 -87 146 -110 172 -37 40
-66 129 -60 180 2 17 10 50 18 74 8 25 15 54 15 65 0 19 -57 78 -150 154 -25
20 -69 58 -98 84 -68 61 -205 127 -307 148 -33 7 -69 16 -80 20 -11 5 -33 11
-50 15 -55 12 -240 87 -271 110 -18 14 -36 40 -44 67 -7 23 -19 50 -26 58 -7
8 -24 42 -38 74 -15 33 -42 83 -60 110 -18 28 -64 105 -102 171 -38 66 -71
122 -74 125 -3 3 -29 45 -58 93 -53 90 -56 98 -67 201 -9 86 -41 162 -79 191
-18 14 -40 25 -49 25 -18 0 -68 47 -134 127 -27 33 -52 52 -71 56 -17 3 -76
24 -133 47 -141 56 -195 62 -231 27 -33 -33 -149 -127 -156 -127 -4 0 -20 11
-37 25 -27 22 -282 153 -395 203 -87 39 -284 67 -365 52z m-150 -2126 c0 -15
-8 -19 -38 -21 -20 0 -40 3 -43 8 -3 5 4 9 14 9 11 0 25 7 32 15 17 20 35 14
35 -11z m1479 -1178 c-10 -8 -21 -12 -24 -10 -5 6 21 24 34 24 6 0 1 -6 -10
-14z"/>
</g>
</svg>
